<svg xmlns="http://www.w3.org/2000/svg" viewBox="0 0 100 100" role="img" aria-label="Chukuta Tactical Consulting Group emblem">
  <circle cx="50" cy="50" r="50" fill="#ffffff" />
  <g fill="#0a1f3f">
    <!-- Left ear (tall, curved — the brand's signature llama silhouette) -->
    <path d="M38 47C36 38 34 27 36 19c.5-2 2.3-1 3.3.9C43.5 30 45.5 38 44 45c-1.7 2.3-4 2.7-6 2z" />
    <!-- Right ear (mirror of the left) -->
    <path d="M62 47c2-9 4-20 2-28-.5-2-2.3-1-3.3.9C56.5 30 54.5 38 56 45c1.7 2.3 4 2.7 6 2z" />
    <!-- Head and muzzle -->
    <path d="M50 39c-6 0-10.3 3.1-12.4 8.2C30.8 49.6 27.7 56 28.8 63.3 30.2 72 38.4 81 50 82.2 61.6 81 69.8 72 71.2 63.3 72.3 56 69.2 49.6 62.4 47.2 60.3 42.1 56 39 50 39z" />
  </g>
</svg>
