<svg xmlns="http://www.w3.org/2000/svg" viewBox="0 0 100 100">
  <rect width="100" height="100" rx="20" fill="#0a1f3f" />
  <circle cx="50" cy="50" r="34" fill="#ffffff" />
  <g fill="#0a1f3f">
    <!-- Left ear -->
    <path d="M41.5 48.5c-1.4-6.4-2.7-14.2-1.3-19.8.3-1.4 1.6-.7 2.3.6 2.9 6.4 4.3 11.9 3.3 16.8-1.2 1.6-2.8 1.9-4.3 1.4z" />
    <!-- Right ear -->
    <path d="M58.5 48.5c1.4-6.4 2.7-14.2 1.3-19.8-.3-1.4-1.6-.7-2.3.6-2.9 6.4-4.3 11.9-3.3 16.8 1.2 1.6 2.8 1.9 4.3 1.4z" />
    <!-- Head and muzzle -->
    <path d="M50 42.5c-4.2 0-7.2 2.2-8.7 5.7-4.8 1.7-7 6.2-6.2 11.4 1 6.1 6.7 12.4 14.9 13.3 8.2-.9 13.9-7.2 14.9-13.3.8-5.2-1.4-9.7-6.2-11.4-1.5-3.5-4.5-5.7-8.7-5.7z" />
  </g>
</svg>
